<svg width="640" height="640" viewBox="0 0 640 640" fill="none" xmlns="http://www.w3.org/2000/svg">
<path d="M110.114 100.551L114.583 180.583L135.833 142.505L143.87 178.033L191.251 131.243L186.415 211.468L209.833 169.505L215.776 195.78L243.833 145.505L262.988 230.184L276.542 194.47L294.2 240.165L311.542 194.47L326.708 233.716L357.542 152.47L376.953 202.702L386.894 166.318L402.369 197.182L414.725 146.943L444.132 202.034L451.179 163.699L470.924 195.927L482.179 134.699L517.783 192.813L527.18 141.699L557.065 190.479L571.18 113.699L593.166 179.328L615.666 151.328V190.328L639.166 124.828V249.829V374.83L617.857 309.328V374.83L591.391 320.533L576.942 383.347L546.603 328.514L538 418.261L494.071 340.96L490.02 394.333L469.103 367.142L414.999 468.5L402.643 418.261L387.167 449.126L377.227 412.742L357.816 462.974L326.982 381.727L311.816 420.974L294.474 375.278L276.816 420.974L260.003 376.673L221.348 434.374L211.737 366.767L147.298 425.196L152.365 376.077L98.5 449.126L105.114 373.609L83.6727 397.118L83.9402 363.42L51.8247 399.124L51.9163 313.441L39.332 352.328L32.1029 302.828L1.16602 371.328L1 121.349L28.1662 197.328L50.1661 112.328L57.3505 166.378L110.114 100.551Z" fill="#5F7D07"/>
<path fill-rule="evenodd" clip-rule="evenodd" d="M640 107.853L623.145 150.768C622.925 147.817 620.981 145.247 618.156 144.253C615.155 143.197 611.813 144.149 609.82 146.63L595.917 163.93L578.291 111.317C577.204 108.074 574.061 105.976 570.649 106.218C567.238 106.46 564.422 108.979 563.803 112.343L553.229 169.862L533.575 137.781C531.952 135.132 528.863 133.757 525.808 134.326C522.753 134.894 520.365 137.287 519.803 140.343L513.947 172.196L488.575 130.781C486.951 128.132 483.863 126.757 480.808 127.326C477.753 127.894 475.365 130.287 474.803 133.343L467.088 175.31L457.575 159.781C455.951 157.132 452.863 155.757 449.808 156.326C446.753 156.894 444.365 159.287 443.803 162.343L440.638 179.56L421.342 143.411C419.879 140.67 416.877 139.115 413.794 139.501C410.71 139.887 408.185 142.135 407.443 145.152L399.949 175.621L393.598 162.956C392.206 160.178 389.244 158.547 386.152 158.854C383.06 159.162 380.478 161.344 379.659 164.341L375.729 178.726L364.538 149.766C363.418 146.868 360.627 144.96 357.52 144.97C354.412 144.979 351.633 146.903 350.53 149.808L326.645 212.745L318.538 191.766C317.418 188.868 314.627 186.96 311.52 186.97C308.412 186.979 305.633 188.903 304.53 191.808L294.137 219.194L283.538 191.766C282.418 188.868 279.627 186.96 276.52 186.97C273.412 186.979 270.633 188.903 269.53 191.808L264.81 204.246L251.148 143.85C250.462 140.82 247.979 138.526 244.903 138.082C241.828 137.638 238.798 139.137 237.283 141.85L218.771 175.024L217.148 167.85C216.462 164.82 213.979 162.526 210.903 162.082C207.828 161.638 204.798 163.137 203.283 165.85L195.878 179.12L198.737 131.695C198.924 128.593 197.179 125.697 194.349 124.414C191.52 123.13 188.191 123.724 185.981 125.907L148.206 163.21L143.148 140.85C142.462 137.82 139.979 135.526 136.903 135.082C133.828 134.638 130.798 136.137 129.283 138.85L120.63 154.356L117.602 100.132C117.429 97.0301 115.36 94.3558 112.401 93.4081C109.442 92.4604 106.205 93.4355 104.261 95.86L62.473 147.995L57.6007 111.339C57.1279 107.782 54.2017 105.059 50.62 104.841C47.0382 104.624 43.8044 106.975 42.9053 110.448L26.3873 174.269L0 113.097V150.968L21.2796 200.298C22.5489 203.241 25.5478 205.052 28.743 204.805C31.9383 204.559 34.6239 202.309 35.4269 199.207L47.7959 151.417L49.9158 167.366C50.3115 170.343 52.4445 172.796 55.3372 173.603C58.2299 174.409 61.3245 173.412 63.2026 171.069L103.717 120.522L107.095 181.001C107.281 184.333 109.647 187.141 112.898 187.891C116.15 188.641 119.506 187.151 121.133 184.237L132.838 163.261L136.554 179.688C137.155 182.345 139.15 184.467 141.764 185.232C144.378 185.996 147.201 185.284 149.14 183.37L182.586 150.341L178.929 211.017C178.718 214.51 180.951 217.684 184.309 218.667C187.668 219.649 191.259 218.179 192.964 215.123L206.838 190.261L208.461 197.435C209.147 200.466 211.63 202.76 214.706 203.203C217.781 203.647 220.811 202.148 222.326 199.435L240.838 166.261L255.673 231.839C256.403 235.066 259.162 237.434 262.463 237.665C265.763 237.897 268.826 235.939 270 232.845L276.605 215.44L287.204 242.868C288.324 245.767 291.116 247.674 294.223 247.665C297.33 247.656 300.11 245.731 301.212 242.826L311.605 215.44L319.712 236.419C320.832 239.318 323.623 241.225 326.731 241.216C329.838 241.206 332.618 239.282 333.72 236.377L357.605 173.44L369.957 205.405C371.125 208.427 374.101 210.357 377.336 210.192C380.571 210.027 383.334 207.803 384.188 204.678L388.967 187.186L395.665 200.544C397.073 203.353 400.084 204.986 403.206 204.635C406.329 204.285 408.902 202.025 409.652 198.973L417.331 167.752L437.516 205.565C439.017 208.378 442.134 209.934 445.285 209.445C448.435 208.955 450.932 206.526 451.509 203.39L455.015 184.317L464.528 199.845C466.152 202.494 469.241 203.869 472.295 203.3C475.35 202.732 477.738 200.339 478.3 197.283L486.015 155.317L511.388 196.731C513.011 199.381 516.1 200.755 519.155 200.187C522.209 199.618 524.598 197.225 525.159 194.169L531.015 162.317L550.669 194.397C552.293 197.047 555.381 198.421 558.436 197.853C561.491 197.285 563.879 194.892 564.441 191.835L573.301 143.641L586.055 181.71C586.926 184.311 589.147 186.228 591.847 186.711C594.547 187.193 597.294 186.163 599.012 184.026L608.166 172.634V190.328C608.166 193.932 610.73 197.026 614.271 197.697C617.812 198.367 621.329 196.424 622.647 193.069L640 148.886V107.853ZM640 347.783L624.895 306.737C623.64 303.326 620.119 301.306 616.541 301.944C612.963 302.581 610.357 305.693 610.357 309.328V342.326L598.132 317.247C596.74 314.39 593.698 312.721 590.54 313.081C587.382 313.442 584.794 315.754 584.082 318.852L574.023 362.58L553.165 324.883C551.574 322.007 548.295 320.502 545.077 321.171C541.858 321.84 539.451 324.527 539.137 327.799L532.798 393.928L500.592 337.255C498.962 334.387 495.649 332.92 492.431 333.642C489.212 334.363 486.842 337.103 486.592 340.393L484.024 374.237L475.047 362.569C473.494 360.55 471.022 359.457 468.483 359.668C465.945 359.878 463.686 361.363 462.487 363.61L417.605 447.692L409.926 416.47C409.175 413.419 406.602 411.159 403.48 410.808C400.357 410.457 397.347 412.09 395.938 414.899L389.241 428.257L384.462 410.765C383.608 407.64 380.844 405.417 377.609 405.251C374.374 405.086 371.398 407.017 370.231 410.038L357.879 442.003L333.993 379.066C332.891 376.161 330.111 374.237 327.004 374.227C323.897 374.218 321.106 376.126 319.986 379.024L311.879 400.003L301.486 372.617C300.383 369.712 297.603 367.788 294.496 367.778C291.389 367.769 288.598 369.677 287.478 372.575L276.879 400.003L267.015 374.012C266.019 371.388 263.642 369.54 260.854 369.222C258.066 368.903 255.334 370.168 253.772 372.499L226.017 413.929L219.162 365.711C218.771 362.963 216.895 360.655 214.284 359.712C211.673 358.77 208.755 359.346 206.699 361.211L156.768 406.485L159.826 376.847C160.173 373.482 158.225 370.302 155.071 369.082C151.917 367.862 148.336 368.904 146.329 371.626L108.299 423.199L112.585 374.263C112.866 371.059 111.072 368.032 108.127 366.74C105.181 365.448 101.74 366.178 99.5722 368.555L91.3279 377.594L91.44 363.48C91.4647 360.363 89.5595 357.556 86.654 356.428C83.7485 355.301 80.4484 356.087 78.3641 358.404L59.3456 379.548L59.4163 313.449C59.4202 309.757 56.7361 306.611 53.0891 306.033C49.4422 305.456 45.9175 307.619 44.7806 311.132L42.1034 319.405L39.5242 301.744C39.0546 298.528 36.5673 295.981 33.3637 295.434C30.16 294.888 26.9691 296.467 25.4602 299.346L0 347.916V376.23L1.64269 377.091L28.0201 326.771L31.9108 353.411C32.4146 356.861 35.229 359.509 38.7029 359.801C40.833 359.981 42.8667 359.245 44.3688 357.885L44.3247 399.116C44.3214 402.223 46.2344 405.01 49.1349 406.125C52.0355 407.239 55.3228 406.449 57.4008 404.139L76.2834 383.147L76.1729 397.059C76.1483 400.166 78.0421 402.966 80.9349 404.101C83.8277 405.235 87.1204 404.468 89.2142 402.172L95.7069 395.053L91.0286 448.471C90.7354 451.819 92.7049 454.953 95.8483 456.141C98.9918 457.329 102.542 456.281 104.536 453.577L142.083 402.658L139.838 424.426C139.519 427.517 141.139 430.484 143.911 431.887C146.684 433.291 150.034 432.839 152.336 430.752L206.301 381.819L213.923 435.429C214.36 438.506 216.649 440.994 219.679 441.685C222.708 442.377 225.85 441.129 227.579 438.548L258.147 392.919L269.804 423.635C270.906 426.54 273.686 428.464 276.793 428.474C279.9 428.483 282.692 426.575 283.812 423.677L294.41 396.249L304.804 423.635C305.906 426.54 308.686 428.464 311.793 428.474C314.9 428.483 317.692 426.575 318.812 423.677L326.918 402.698L350.804 465.635C351.906 468.54 354.686 470.464 357.793 470.474C360.9 470.483 363.692 468.575 364.812 465.677L376.002 436.717L379.932 451.102C380.751 454.1 383.334 456.282 386.426 456.589C389.518 456.896 392.479 455.265 393.872 452.487L400.222 439.822L407.716 470.291C408.458 473.309 410.984 475.556 414.067 475.942C417.15 476.328 420.152 474.773 421.615 472.032L470.246 380.928L484.076 398.906C485.97 401.369 489.187 402.408 492.165 401.52C495.142 400.631 497.264 397.999 497.499 394.9L499.69 366.028L531.479 421.967C533.096 424.811 536.369 426.279 539.568 425.595C542.767 424.911 545.154 422.233 545.466 418.977L551.759 353.325L570.379 386.978C571.884 389.696 574.909 391.206 577.986 390.774C581.063 390.341 583.554 388.056 584.251 385.028L593.944 342.889L611.115 378.117C612.645 381.256 616.14 382.924 619.543 382.138C622.946 381.353 625.357 378.323 625.357 374.83V351.424L637.461 384.318L640 383.383V347.783Z" fill="black"/>
<circle cx="320" cy="402" r="73.5" fill="#D3A502" stroke="black" stroke-width="15" stroke-linejoin="round"/>
<circle cx="557" cy="386" r="73.5" fill="#8F0000" stroke="black" stroke-width="15" stroke-linejoin="round"/>
<circle cx="83" cy="452" r="73.5" fill="#8F0000" stroke="black" stroke-width="15" stroke-linejoin="round"/>
<rect width="640" height="640" fill="#121214" fill-opacity="0.3"/>
</svg>
