<svg  width="640" height="640" viewBox="0 0 640 640" fill="none" xmlns="http://www.w3.org/2000/svg">
<path d="M353.5 112.5C460.043 110.71 465.5 243 465.5 243C465.5 243 450.983 319.344 319.261 321.557C187.538 323.771 172 246.5 172 246.5C172 246.5 176.624 114.22 279 112.5C381.376 110.78 246.957 114.29 353.5 112.5Z" fill="#D9D9D9"/>
<path d="M275.307 618.103L166.432 248.827C167.388 251.996 190.448 323.722 319.261 321.558C450.983 319.344 469.468 243.625 469.468 243.625L378.47 616.369L275.307 618.103Z" fill="#E39F6D"/>
<path d="M464.702 243.705L378.471 616.369L275.307 618.103L172.346 248.618M464.702 243.705C470.345 226.398 450.009 108.891 343.466 110.682C236.923 112.472 389.36 108.961 286.985 110.682C184.609 112.402 164.115 231.544 172.346 248.618M464.702 243.705C464.702 243.705 450.489 318.753 319.261 321.557C188.033 324.362 172.346 248.618 172.346 248.618" stroke="black" stroke-width="15" stroke-linejoin="round"/>
<path d="M423.36 150.36C420.654 159.203 416.804 165.403 412.31 169.724C407.836 174.026 402.386 176.792 395.955 178.27C382.781 181.298 365.789 178.851 346.479 172.943C327.169 167.034 311.718 159.553 302.494 149.671C297.991 144.848 295.022 139.506 293.722 133.436C292.416 127.341 292.694 120.048 295.4 111.205C306.212 75.8693 343.622 55.9897 378.958 66.8021C414.293 77.6146 434.173 115.025 423.36 150.36Z" fill="#C12B58" stroke="black" stroke-width="15"/>
<path d="M429.614 14L384 90L454 27.5L429.614 14Z" fill="#42FF00" stroke="black" stroke-width="21" stroke-linejoin="round"/>
<path d="M432 18.5L387.5 87L450 27.5L432 18.5Z" fill="#77A000"/>
<!-- <rect xmlns="http://www.w3.org/2000/svg" width="640" height="640" fill="#121214" fill-opacity="0.70"/> -->
</svg>
