<svg width="516" height="424" viewBox="0 0 516 424" fill="none" xmlns="http://www.w3.org/2000/svg">
<path fill-rule="evenodd" clip-rule="evenodd" d="M395.543 91.8865L376.691 121.38C409.115 141.646 442.742 171.842 476.764 214.934C436.112 271.08 392.134 304.665 348.742 322.585C311.446 337.987 273.835 342.126 237.974 338.406L217.202 370.904C263.18 378.535 312.824 375.285 362.102 354.935C415.385 332.93 467.103 291.405 512.948 224.321C517.191 218.114 516.994 209.89 512.459 203.893C473.878 152.863 434.649 116.391 395.543 91.8865ZM156.781 402.854L148.745 415.425C143.54 423.568 132.719 425.95 124.575 420.745C116.432 415.54 114.05 404.719 119.255 396.575L148.482 350.848C122.287 339.817 98.3116 325.677 77.4855 309.987C42.3658 283.528 15.0766 251.801 1.53308 221.61C-0.961034 216.05 -0.383483 209.593 3.05776 204.564C40.046 150.511 112.78 79.6732 204.492 57.7395C244.447 48.184 287.836 47.9799 332.856 62.3923L367.255 8.57517C372.46 0.43158 383.281 -1.95047 391.425 3.25471C397.594 7.19769 400.456 14.3633 399.22 21.1465L159.255 396.575C157.993 398.55 157.176 400.682 156.781 402.854ZM249.046 321.083C251.999 321.324 254.985 321.447 258 321.447C317.923 321.447 366.5 272.87 366.5 212.947C366.5 193.475 361.37 175.201 352.389 159.402L329.389 195.386C330.768 201.013 331.5 206.895 331.5 212.947C331.5 248.738 305.918 278.555 272.041 285.108L249.046 321.083ZM212.633 91.7796C244.141 84.2442 277.936 83.4708 313.242 93.0788L300.463 113.071C287.421 107.519 273.069 104.447 258 104.447C198.077 104.447 149.5 153.024 149.5 212.947C149.5 244.856 163.274 273.548 185.201 293.401L167.643 320.872C142.143 310.755 118.729 297.238 98.5459 282.032C70.5371 260.931 49.6162 237.245 37.8478 216.006C73.4261 167.565 136.785 109.919 212.633 91.7796ZM204.447 263.29L224.748 231.529L212.586 231.937C202.927 232.261 194.834 224.693 194.51 215.033C194.186 205.374 201.754 197.281 211.414 196.957L247.622 195.743L281.213 143.188C273.917 140.761 266.112 139.447 258 139.447C217.407 139.447 184.5 172.354 184.5 212.947C184.5 232.427 192.078 250.137 204.447 263.29Z" fill="black"/>
</svg>
